<?xml version="1.0" encoding="utf-8"?>
<!-- Generator: Adobe Illustrator 22.1.0, SVG Export Plug-In . SVG Version: 6.00 Build 0)  -->
<!DOCTYPE svg PUBLIC "-//W3C//DTD SVG 1.1//EN" "http://www.w3.org/Graphics/SVG/1.1/DTD/svg11.dtd">
<svg version="1.1" id="Layer_1" xmlns="http://www.w3.org/2000/svg" xmlns:xlink="http://www.w3.org/1999/xlink" x="0px" y="0px"
	 width="24.2px" height="24.2px" viewBox="0 0 24.2 24.2" style="enable-background:new 0 0 24.2 24.2;" xml:space="preserve">
<style type="text/css">
	.st0{fill:#FFFFFF;}
</style>
<circle cx="12.1" cy="12.1" r="12.1"/>
<path class="st0" d="M16,4.7c0.3,0,0.4,0.1,0.7,0.1c1.9,0.4,3,1.9,3,3.6c0,1.1-0.7,2.1-1.6,2.9c-1.7,1.3-3.3,2.4-5,3.7
	c-0.7,0.4-1.4,0.4-1.9-0.3c-0.9-0.9-1.4-1.7-2.1-2.6c-0.3-0.4-0.3-1-0.1-1.4c0.3-0.6,0.7-0.7,1.3-0.7c0.4,0,0.7,0.1,1,0.6
	c0.4,0.4,0.7,0.9,1,1.3c0.1,0.1,0.1,0.1,0.4,0C14,11,15.1,10,16.4,9.1c0.4-0.3,0.4-0.7,0.3-1c-0.1-0.4-0.4-0.7-0.9-0.7
	c-2.4,0-4.7,0-7.1,0C7.8,7.4,7.3,8,7.3,8.8c0,2.1,0,4.4,0,6.6c0,1,0.6,1.4,1.6,1.4c2.1,0,4.4,0,6.6,0c1,0,1.6-0.6,1.6-1.6
	c0-0.1,0-0.3,0-0.4c0-0.7,0.6-1.3,1.3-1.3c0.7,0,1.3,0.4,1.4,1.1c0.1,1.6-0.3,2.9-1.6,3.9c-0.7,0.4-1.4,0.9-2.1,0.9
	c-2.4,0-5,0-7.4,0c-1.9,0-3.4-1.7-3.6-3.4c0-0.6,0-1.3,0-1.9c0-1.7,0-3.6,0-5.3c0-1.9,1.1-3.4,3-4c0.3-0.1,0.6-0.1,0.7-0.1
	C10.8,4.7,13.4,4.7,16,4.7z"/>
</svg>
