<svg width="40" height="40" viewBox="0 0 40 40" fill="none" xmlns="http://www.w3.org/2000/svg">
<path d="M26.46 10.2901H26.9979V11.8641H27.3101L27.3126 10.2926H27.8506V10.0024L26.46 10V10.2901Z" fill="#2B2B2B"/>
<path d="M28.5915 10.0024H28.1018V11.8593H28.3987L28.4012 10.3651H28.4063L28.9316 11.8617H29.1498L29.6853 10.3675H29.6903L29.6878 11.8617H29.9974L29.9999 10.0024H29.5076L29.0534 11.325H29.0458L28.5915 10.0024Z" fill="#2B2B2B"/>
<path d="M23.7386 10C22.754 10 22.1196 10.5948 22.1196 11.516L22.1145 16.7964C21.0995 15.7447 19.5744 15.1692 17.7854 15.1668C13.6415 15.1644 10.0051 18.6364 10 22.6015C9.99493 26.5377 13.6262 29.9952 17.7676 30C19.6048 30.0024 21.3253 29.1006 22.2363 28.2108C22.414 29.1779 23.0255 29.7074 23.9771 29.7074C24.7638 29.7074 25.3347 29.132 25.3373 28.339L25.3576 11.5208C25.3576 10.6117 24.708 10.0024 23.7386 10ZM17.7397 26.7336C15.3518 26.7311 13.408 24.8767 13.4105 22.5967C13.4131 20.3191 15.3594 18.4671 17.7473 18.4695C20.1352 18.472 22.079 20.3264 22.0765 22.6064C22.0739 24.8839 20.1276 26.736 17.7397 26.7336Z" fill="#2B2B2B"/>
<path d="M17.7453 19.8332C16.1136 19.8332 14.7915 21.0953 14.7915 22.6499C14.7915 24.2046 16.1136 25.4667 17.7453 25.4667C19.377 25.4667 20.7016 24.2046 20.7016 22.6499C20.7016 21.0953 19.377 19.8332 17.7453 19.8332Z" fill="#517934"/>
</svg>
